<svg version="1.1" id="Layer_1" xmlns="http://www.w3.org/2000/svg" xmlns:xlink="http://www.w3.org/1999/xlink" x="0px" y="0px"
	 width="100%" viewBox="0 0 600 600" enable-background="new 0 0 600 600" xml:space="preserve">
<path fill="#0F1111" opacity="1.000000" stroke="none" 
	d="
M279.468658,601.000000 
	C272.715485,600.074585 266.437744,599.100037 260.145355,598.231689 
	C218.988907,592.552246 180.525436,579.172485 145.134384,557.392456 
	C89.465149,523.133057 48.930244,475.763397 23.606201,415.497192 
	C11.354396,386.340302 4.330545,355.870453 1.389225,324.179932 
	C1.000000,308.979095 1.000000,293.958221 1.000000,278.468658 
	C1.946836,272.056946 3.031741,266.132111 3.818487,260.167938 
	C9.690155,215.656082 24.935314,174.553177 49.709187,137.203934 
	C93.708870,70.869743 154.458740,27.878712 231.913483,9.185603 
	C247.187363,5.499370 263.034668,4.189072 278.808777,1.391521 
	C292.354218,1.000000 305.708466,1.000000 319.531342,0.999997 
	C320.684296,1.295359 321.356354,1.815867 322.054626,1.853849 
	C360.092346,3.922804 396.201355,13.785826 430.358276,30.214724 
	C484.074493,56.051315 526.535645,94.683830 557.670532,145.566635 
	C578.479675,179.574280 591.560730,216.468903 597.733398,255.810333 
	C598.918152,263.361542 599.409912,271.021484 600.610718,278.815643 
	C601.000000,293.687561 601.000000,308.375122 601.000000,323.531342 
	C600.073975,329.781799 599.015991,335.546051 598.242493,341.348175 
	C591.020935,395.516602 570.409424,444.076660 536.449951,486.785828 
	C492.198578,542.438599 435.187744,578.251160 365.813568,593.823364 
	C350.952454,597.159241 335.568817,598.167297 320.212952,600.623901 
	C306.645782,601.000000 293.291534,601.000000 279.468658,601.000000 
M201.759460,580.777466 
	C220.685303,587.464478 240.089966,592.187317 260.805389,595.069031 
	C263.271881,595.305725 265.738342,595.542419 269.069427,595.974854 
	C290.684723,598.470825 312.294769,598.447021 334.716339,595.839355 
	C337.177124,595.528442 339.637878,595.217590 342.888397,594.965759 
	C350.041779,593.635132 357.317993,592.760193 364.321259,590.872498 
	C376.375061,587.623657 388.258789,583.744019 400.952301,580.049622 
	C403.338684,578.953796 405.725067,577.857971 408.823578,577.033508 
	C409.769989,576.791809 410.756561,576.651428 411.657013,576.294006 
	C454.674988,559.219971 491.494446,533.211548 522.211365,498.703583 
	C562.959900,452.925842 587.397461,399.590210 595.326599,338.734192 
	C599.629700,305.707397 598.531067,272.832520 591.559814,240.340271 
	C577.443176,174.544525 545.189087,119.028511 493.742340,75.596138 
	C425.385468,17.887930 346.246979,-5.233914 257.637634,7.609748 
	C185.383102,18.082832 124.451210,51.145058 76.924553,106.708199 
	C14.880719,179.243271 -7.923136,263.568298 9.877256,357.120209 
	C27.144945,447.872467 78.263145,515.686646 158.540146,561.269165 
	C169.437256,567.456726 181.417542,571.736633 193.510071,577.267822 
	C196.033768,578.288757 198.557449,579.309692 201.759460,580.777466 
z"/>
<path fill="#9EC5C7" opacity="1.000000" stroke="none" 
	d="
M333.899384,595.839050 
	C312.294769,598.447021 290.684723,598.470825 268.752319,595.521545 
	C270.627869,579.050659 272.942810,563.048279 274.940430,547.006409 
	C275.559357,542.036255 275.316101,536.958862 275.785553,531.828369 
	C275.461639,528.827515 274.819763,525.928894 274.083801,522.711243 
	C273.953156,521.951416 273.916626,521.510559 274.158783,520.854675 
	C273.203735,517.397034 271.969971,514.154358 270.521912,510.647644 
	C265.336975,497.276520 257.298340,486.364594 246.008072,478.137970 
	C228.801224,465.600250 211.441849,453.262115 193.897354,441.202759 
	C187.636948,436.899658 180.999664,432.601166 173.890427,430.237335 
	C167.428848,428.088837 163.996368,424.518616 161.466461,418.664856 
	C156.653381,407.528107 151.793564,396.370667 146.134888,385.653870 
	C141.992065,377.807861 135.497208,372.374084 126.186172,370.431915 
	C122.891258,369.744659 119.736679,366.760925 117.287277,364.113831 
	C114.973267,361.613068 114.031448,357.881012 111.846848,355.214233 
	C107.039925,349.346344 102.372856,343.166565 96.634354,338.313507 
	C90.654358,333.256165 84.465233,334.503693 79.084076,340.190887 
	C78.521606,340.965637 78.300194,341.619202 78.090721,342.457916 
	C78.102661,342.643097 78.000847,342.999969 77.833237,343.081177 
	C77.595963,343.263458 77.445358,343.420410 77.470131,343.456299 
	C77.602287,343.647644 77.778297,343.808685 77.975342,344.387085 
	C78.094124,345.876526 78.176712,346.959106 78.203049,348.431702 
	C78.115547,349.871857 78.084290,350.922028 77.747337,352.252625 
	C77.715897,358.350891 77.962830,364.170441 78.329865,369.982330 
	C78.352760,370.344879 79.317070,370.647980 79.925011,371.360901 
	C80.284203,373.196686 80.561775,374.650299 80.896057,376.516663 
	C83.341408,387.378296 84.886398,398.114685 88.325012,408.205780 
	C92.976295,421.855530 98.528252,435.271423 104.694435,448.314575 
	C113.575172,467.099670 128.965668,480.925995 143.024338,495.654510 
	C156.358826,509.624359 170.215698,523.096558 183.506226,537.106934 
	C188.727402,542.610840 194.149048,548.674377 194.543869,556.682007 
	C194.874008,563.377930 193.510056,570.157349 192.896271,576.899780 
	C181.417542,571.736633 169.437256,567.456726 158.540146,561.269165 
	C78.263145,515.686646 27.144945,447.872467 9.877256,357.120209 
	C-7.923136,263.568298 14.880719,179.243271 76.924553,106.708199 
	C124.451210,51.145058 185.383102,18.082832 257.637634,7.609748 
	C346.246979,-5.233914 425.385468,17.887930 493.742340,75.596138 
	C545.189087,119.028511 577.443176,174.544525 591.559814,240.340271 
	C598.531067,272.832520 599.629700,305.707397 595.326599,338.734192 
	C587.397461,399.590210 562.959900,452.925842 522.211365,498.703583 
	C491.494446,533.211548 454.674988,559.219971 411.657013,576.294006 
	C410.756561,576.651428 409.769989,576.791809 408.510925,576.473633 
	C408.035797,574.423096 407.980804,572.911438 407.693542,571.445312 
	C405.665894,561.096741 407.241852,551.565308 414.022949,543.208862 
	C416.433502,540.238403 418.727112,537.138123 421.408691,534.428284 
	C437.693817,517.971069 454.249390,501.778046 470.363800,485.156677 
	C481.041962,474.142578 490.742615,462.282562 496.968689,447.738464 
	C497.068420,447.522858 497.129364,447.051666 497.093872,447.030884 
	C497.058411,447.010101 497.063812,447.092163 497.318115,446.923462 
	C497.753174,446.178497 497.933899,445.602264 498.074677,445.021820 
	C498.034729,445.017639 498.067841,445.090851 498.323547,444.923584 
	C498.757660,444.182159 498.936066,443.608002 499.074799,443.019104 
	C499.035126,443.004395 499.070648,443.081207 499.339722,442.927643 
	C499.813690,442.193878 500.018616,441.613708 500.440735,440.848755 
	C500.783783,440.116089 500.909607,439.568176 501.277527,438.765747 
	C502.042603,436.686066 502.565552,434.860870 503.053772,433.018616 
	C503.019012,433.001526 503.049103,433.072815 503.350891,433.057556 
	C503.805115,432.673859 503.957550,432.305420 504.346436,431.680115 
	C508.362701,420.150970 512.677002,409.022430 515.758057,397.562286 
	C518.359314,387.886688 519.530151,377.826508 521.686951,367.832092 
	C523.025391,360.669678 524.072998,353.618988 524.906067,346.543060 
	C524.994873,345.788177 523.830750,344.885803 523.121704,343.697266 
	C520.650818,335.939178 516.020386,333.116486 508.981415,336.114136 
	C504.553680,337.999756 500.128967,341.020935 497.046295,344.668121 
	C492.589233,349.941345 489.715271,356.528717 485.450928,361.997894 
	C482.948792,365.207001 479.422821,368.684692 475.722412,369.679443 
	C466.925232,372.044250 460.105804,376.589172 455.973907,384.441864 
	C450.643402,394.572662 445.783508,404.971924 441.180328,415.457275 
	C438.125031,422.416809 434.731537,428.468842 426.569061,430.428864 
	C423.912903,431.066681 421.418915,432.763214 419.093689,434.334900 
	C401.602600,446.157501 384.143341,458.027802 366.730621,469.965546 
	C347.538086,483.123474 332.227631,499.192627 327.117798,523.202332 
	C322.678314,535.596619 322.630157,547.815247 327.121094,560.310547 
	C327.474091,561.417664 327.717285,562.215759 327.628418,563.063782 
	C324.904388,565.606506 326.671875,566.834656 328.838196,568.233154 
	C328.898010,568.690125 328.890015,568.876160 328.614563,569.335999 
	C329.127045,574.898254 329.808868,580.204285 330.747345,585.464478 
	C331.025604,587.024231 332.026062,588.455261 332.801208,590.312378 
	C333.237671,592.399353 333.568512,594.119202 333.899384,595.839050 
M332.752289,125.058739 
	C344.390808,128.430176 356.438690,130.799240 367.593689,135.354660 
	C406.279144,151.152832 435.718109,177.769897 455.772583,214.415390 
	C469.562622,239.613831 477.195862,266.536438 477.244965,295.542816 
	C477.272736,311.952606 475.445160,328.040863 472.015961,344.025696 
	C471.505585,346.404633 469.699005,349.933319 473.646942,350.518005 
	C475.166351,350.743042 477.312317,347.671051 478.928864,345.880981 
	C479.649414,345.083008 479.925446,343.769989 480.134552,342.640961 
	C482.761139,328.457733 486.519562,314.361359 487.681946,300.055359 
	C490.078033,270.565521 485.103943,242.034927 472.731171,214.964127 
	C456.002045,178.361893 430.158051,149.748413 395.295013,130.018143 
	C353.748596,106.505547 309.130676,99.323158 262.129944,109.044807 
	C206.732147,120.503304 164.429276,150.509964 135.844376,199.336609 
	C110.777969,242.153229 106.772560,287.887787 118.445312,335.491425 
	C119.471573,339.676697 120.811821,343.853394 122.634697,347.739288 
	C123.310051,349.178925 125.794769,349.769775 127.454315,350.747711 
	C128.089264,349.095947 129.161331,347.465759 129.244141,345.786774 
	C129.339233,343.858521 128.558060,341.887085 128.669708,339.380524 
	C128.767349,338.564026 129.034790,337.726379 128.936325,336.934265 
	C127.978348,329.228516 126.649147,321.554169 126.055161,313.822540 
	C125.577362,307.603180 126.501442,301.260925 125.850166,295.073578 
	C124.837555,285.453369 126.204659,276.109985 127.557808,266.691650 
	C127.820076,264.866241 127.258247,262.922363 127.062302,260.251556 
	C130.510315,244.576599 136.037354,229.658524 143.684875,215.562073 
	C159.605026,186.216934 182.194305,163.138489 210.793533,146.176727 
	C229.362961,135.163483 249.516373,127.988586 271.609589,125.637314 
	C276.669006,125.283363 281.725098,124.696404 286.788513,124.625008 
	C296.677948,124.485580 306.571838,124.590263 316.463104,124.681778 
	C321.624084,124.729523 326.783295,124.964127 332.752289,125.058739 
M319.739685,186.969986 
	C319.366699,186.675064 319.003754,186.136734 318.619202,186.120804 
	C309.090668,185.726151 299.560242,185.185699 290.029205,185.167587 
	C287.382172,185.162552 284.732178,186.735428 281.286591,187.864410 
	C279.660248,188.204590 278.025238,188.508209 276.408783,188.890274 
	C230.396713,199.766129 199.612228,227.366058 186.615723,273.013245 
	C176.309647,309.210785 182.427719,343.393097 204.486420,373.998077 
	C223.386826,400.221130 249.717514,415.085419 281.337189,420.806274 
	C287.792725,421.974274 294.308228,423.536346 300.801605,423.562744 
	C307.127350,423.588470 313.462555,421.894379 319.789368,420.927582 
	C333.077881,418.897034 345.577423,414.503418 357.344879,408.072449 
	C381.941833,394.630219 399.598480,374.861206 409.940674,348.857086 
	C421.474213,319.857422 422.677399,290.391846 410.586792,261.352631 
	C393.673279,220.729843 363.504242,195.795135 319.739685,186.969986 
z"/>
<path fill="#E2D9C1" opacity="1.000000" stroke="none" 
	d="
M400.213898,580.129150 
	C388.258789,583.744019 376.375061,587.623657 364.321259,590.872498 
	C357.317993,592.760193 350.041779,593.635132 342.469421,594.505737 
	C340.816589,585.969666 339.724518,577.868469 338.294464,569.827332 
	C337.464966,565.163147 336.092072,560.595520 335.157043,555.708740 
	C334.917542,552.281433 334.484619,549.129822 334.089783,545.602661 
	C334.034973,544.480286 333.942047,543.733398 333.910980,542.562378 
	C333.948975,540.424133 333.925079,538.710022 333.991638,536.598816 
	C336.432129,527.158569 338.782166,518.115479 341.096588,509.045227 
	C341.060974,509.018036 341.068909,509.107269 341.308868,508.915833 
	C341.811768,508.172455 342.074707,507.620514 342.583374,506.850525 
	C347.376556,497.871704 354.121490,490.935089 361.885864,485.147858 
	C375.614960,474.914825 389.587677,465.000519 403.630829,455.199890 
	C412.076202,449.305878 420.723663,443.675842 429.516235,438.314056 
	C435.434357,434.705109 439.340118,437.046051 438.957092,443.849854 
	C438.324188,455.094055 431.049347,462.288757 422.946655,468.890594 
	C415.090210,475.291809 407.222015,481.684540 399.573975,488.328461 
	C398.527435,489.237640 397.969025,491.954163 398.563110,493.147675 
	C399.129974,494.286499 401.612244,495.230225 403.046021,494.995972 
	C405.041077,494.669952 407.080719,493.452972 408.690704,492.121033 
	C419.839539,482.897614 431.191925,473.885986 441.882111,464.150909 
	C456.181335,451.129150 467.139771,435.876984 473.460388,417.139435 
	C479.449371,399.385223 486.995239,382.151428 494.007294,364.749573 
	C496.695160,358.079163 500.964233,352.452881 506.905914,347.859680 
	C507.460663,347.502350 507.725708,347.219330 508.109589,346.705383 
	C508.703217,346.289307 509.178009,346.104156 510.077698,345.949524 
	C514.047241,346.365692 512.685974,348.756042 512.625000,350.812042 
	C512.525085,354.179199 512.742065,357.555725 512.889587,361.279846 
	C512.885315,362.099457 512.816895,362.567505 512.408936,363.116638 
	C512.092773,364.826538 512.116150,366.455353 512.106201,368.501404 
	C510.158173,386.393951 505.847687,403.283722 499.887970,419.801819 
	C493.130249,438.531647 484.253998,456.086426 471.071564,471.141632 
	C463.321899,479.992249 455.034332,488.371918 446.737000,497.107880 
	C445.982666,497.831879 445.480042,498.411438 444.675842,499.136292 
	C434.204834,509.616608 424.231506,520.154663 413.803772,530.222168 
	C405.515930,538.223633 399.499695,547.312256 398.980591,558.976196 
	C398.668213,565.994995 399.755554,573.076050 400.213898,580.129150 
z"/>
<path fill="#E2D9C1" opacity="1.000000" stroke="none" 
	d="
M259.968262,594.967224 
	C240.089966,592.187317 220.685303,587.464478 201.534027,580.096558 
	C205.436996,561.375122 203.346237,544.694946 189.950119,530.852478 
	C178.858078,519.390808 167.438309,508.246338 156.051880,496.704285 
	C155.641052,496.232758 155.342102,496.018250 154.897003,495.511536 
	C150.600006,491.124054 146.449127,487.028748 142.150879,482.648621 
	C141.689621,482.074066 141.375732,481.784363 140.956146,481.199646 
	C102.774971,443.673523 89.213799,396.972137 88.197014,345.078949 
	C91.348152,346.094421 94.311363,347.251343 95.974594,349.409912 
	C100.914566,355.821198 106.587624,362.091248 109.725044,369.384064 
	C117.466652,387.379089 123.765724,405.989044 131.044083,424.192078 
	C133.660309,430.735260 136.641922,437.398285 140.803131,443.007904 
	C153.319168,459.880280 169.983978,472.545898 186.074417,485.741028 
	C189.149506,488.262787 192.217270,490.794403 195.248016,493.369019 
	C197.915894,495.635345 200.984909,496.107117 202.865860,493.140411 
	C203.632812,491.930817 202.049713,488.976471 201.096863,487.030945 
	C200.563583,485.942078 199.107193,485.321106 198.108322,484.442047 
	C188.488892,475.975647 178.784668,467.602142 169.306000,458.980743 
	C164.810425,454.891724 162.558029,449.661011 162.949097,443.366577 
	C163.315491,437.469055 166.237534,435.396515 171.753769,437.802399 
	C175.093262,439.258850 178.400818,440.960022 181.380768,443.040985 
	C198.435257,454.950439 215.352768,467.055908 232.383957,478.998993 
	C248.222000,490.105438 260.676208,503.703552 265.606995,523.479797 
	C266.183929,531.262024 266.687988,538.611450 267.101532,546.367432 
	C264.663422,562.838379 262.315826,578.902832 259.968262,594.967224 
z"/>
<path fill="#6D6C55" opacity="1.000000" stroke="none" 
	d="
M260.386810,595.018127 
	C262.315826,578.902832 264.663422,562.838379 267.480103,546.267029 
	C268.281921,541.462036 269.147980,537.117432 268.777405,532.880859 
	C268.484680,529.533997 266.671875,526.320068 265.534149,523.047058 
	C260.676208,503.703552 248.222000,490.105438 232.383957,478.998993 
	C215.352768,467.055908 198.435257,454.950439 181.380768,443.040985 
	C178.400818,440.960022 175.093262,439.258850 171.753769,437.802399 
	C166.237534,435.396515 163.315491,437.469055 162.949097,443.366577 
	C162.558029,449.661011 164.810425,454.891724 169.306000,458.980743 
	C178.784668,467.602142 188.488892,475.975647 198.108322,484.442047 
	C199.107193,485.321106 200.563583,485.942078 201.096863,487.030945 
	C202.049713,488.976471 203.632812,491.930817 202.865860,493.140411 
	C200.984909,496.107117 197.915894,495.635345 195.248016,493.369019 
	C192.217270,490.794403 189.149506,488.262787 186.074417,485.741028 
	C169.983978,472.545898 153.319168,459.880280 140.803131,443.007904 
	C136.641922,437.398285 133.660309,430.735260 131.044083,424.192078 
	C123.765724,405.989044 117.466652,387.379089 109.725044,369.384064 
	C106.587624,362.091248 100.914566,355.821198 95.974594,349.409912 
	C94.311363,347.251343 91.348152,346.094421 88.197014,345.078949 
	C89.213799,396.972137 102.774971,443.673523 141.046967,481.529236 
	C141.595062,482.413696 141.946671,482.673553 142.298264,482.933441 
	C146.449127,487.028748 150.600006,491.124054 154.996109,495.778748 
	C155.548798,496.545868 155.856277,496.753571 156.163742,496.961304 
	C167.438309,508.246338 178.858078,519.390808 189.950119,530.852478 
	C203.346237,544.694946 205.436996,561.375122 201.194885,579.873108 
	C198.557449,579.309692 196.033768,578.288757 193.203186,577.083801 
	C193.510056,570.157349 194.874008,563.377930 194.543869,556.682007 
	C194.149048,548.674377 188.727402,542.610840 183.506226,537.106934 
	C170.215698,523.096558 156.358826,509.624359 143.024338,495.654510 
	C128.965668,480.925995 113.575172,467.099670 104.694435,448.314575 
	C98.528252,435.271423 92.976295,421.855530 88.325012,408.205780 
	C84.886398,398.114685 83.341408,387.378296 81.213974,376.258881 
	C80.841576,366.622772 80.218163,357.656403 79.521446,348.695770 
	C79.502068,348.446503 78.697639,348.258331 78.259285,348.041687 
	C78.176712,346.959106 78.094124,345.876526 78.030945,344.144592 
	C78.050354,343.495209 78.000847,342.999969 78.000847,342.999969 
	C78.000847,342.999969 78.102661,342.643097 78.335678,342.240112 
	C78.854172,341.247986 79.139656,340.658844 79.425133,340.069672 
	C84.465233,334.503693 90.654358,333.256165 96.634354,338.313507 
	C102.372856,343.166565 107.039925,349.346344 111.846848,355.214233 
	C114.031448,357.881012 114.973267,361.613068 117.287277,364.113831 
	C119.736679,366.760925 122.891258,369.744659 126.186172,370.431915 
	C135.497208,372.374084 141.992065,377.807861 146.134888,385.653870 
	C151.793564,396.370667 156.653381,407.528107 161.466461,418.664856 
	C163.996368,424.518616 167.428848,428.088837 173.890427,430.237335 
	C180.999664,432.601166 187.636948,436.899658 193.897354,441.202759 
	C211.441849,453.262115 228.801224,465.600250 246.008072,478.137970 
	C257.298340,486.364594 265.336975,497.276520 270.577881,511.045105 
	C271.858765,514.827698 272.869415,517.948730 273.880066,521.069702 
	C273.916626,521.510559 273.953156,521.951416 274.074768,523.112305 
	C274.595764,526.531677 275.031677,529.231140 275.467590,531.930542 
	C275.316101,536.958862 275.559357,542.036255 274.940430,547.006409 
	C272.942810,563.048279 270.627869,579.050659 268.320038,595.423706 
	C265.738342,595.542419 263.271881,595.305725 260.386810,595.018127 
M153.193359,441.370331 
	C155.657562,434.895081 156.322357,428.720001 152.815735,422.082977 
	C149.654648,416.099976 148.397888,409.095123 145.132416,403.186981 
	C141.105515,395.901215 135.994415,389.191986 131.049454,382.455597 
	C130.066040,381.115906 127.717590,380.778290 125.998596,379.978577 
	C125.551262,380.424042 125.103935,380.869507 124.656601,381.314941 
	C127.669197,390.781403 130.168137,400.452545 133.836655,409.657593 
	C137.618515,419.147064 142.380112,428.265137 147.089081,437.350800 
	C148.090240,439.282471 150.714966,440.372681 153.193359,441.370331 
z"/>
<path fill="#6D6C55" opacity="1.000000" stroke="none" 
	d="
M506.616180,347.934021 
	C500.964233,352.452881 496.695160,358.079163 494.007294,364.749573 
	C486.995239,382.151428 479.449371,399.385223 473.460388,417.139435 
	C467.139771,435.876984 456.181335,451.129150 441.882111,464.150909 
	C431.191925,473.885986 419.839539,482.897614 408.690704,492.121033 
	C407.080719,493.452972 405.041077,494.669952 403.046021,494.995972 
	C401.612244,495.230225 399.129974,494.286499 398.563110,493.147675 
	C397.969025,491.954163 398.527435,489.237640 399.573975,488.328461 
	C407.222015,481.684540 415.090210,475.291809 422.946655,468.890594 
	C431.049347,462.288757 438.324188,455.094055 438.957092,443.849854 
	C439.340118,437.046051 435.434357,434.705109 429.516235,438.314056 
	C420.723663,443.675842 412.076202,449.305878 403.630829,455.199890 
	C389.587677,465.000519 375.614960,474.914825 361.885864,485.147858 
	C354.121490,490.935089 347.376556,497.871704 342.269653,506.966187 
	C341.496429,507.902344 341.282684,508.504791 341.068909,509.107269 
	C341.068909,509.107269 341.060974,509.018036 340.727966,509.066895 
	C335.476257,517.760071 332.803253,527.000732 332.716156,537.250305 
	C332.911499,539.328735 333.380280,541.157593 333.849121,542.986511 
	C333.942047,543.733398 334.034973,544.480286 333.796814,545.857666 
	C333.965027,549.653564 334.464325,552.818970 334.963623,555.984436 
	C336.092072,560.595520 337.464966,565.163147 338.294464,569.827332 
	C339.724518,577.868469 340.816589,585.969666 342.074585,594.476196 
	C339.637878,595.217590 337.177124,595.528442 334.307861,595.839233 
	C333.568512,594.119202 333.237671,592.399353 332.797943,589.913269 
	C331.420044,582.452087 330.151031,575.757141 328.882019,569.062195 
	C328.890015,568.876160 328.898010,568.690125 328.963867,567.951111 
	C328.801025,566.074646 328.580292,564.751099 328.687653,563.209656 
	C329.179199,562.393860 329.592529,561.737976 329.469147,561.206787 
	C327.092346,550.973694 325.877350,540.704590 327.921753,530.238220 
	C328.111938,529.264648 327.394043,528.113831 327.078491,526.644653 
	C327.203949,525.181335 327.348633,524.118774 327.493317,523.056152 
	C332.227631,499.192627 347.538086,483.123474 366.730621,469.965546 
	C384.143341,458.027802 401.602600,446.157501 419.093689,434.334900 
	C421.418915,432.763214 423.912903,431.066681 426.569061,430.428864 
	C434.731537,428.468842 438.125031,422.416809 441.180328,415.457275 
	C445.783508,404.971924 450.643402,394.572662 455.973907,384.441864 
	C460.105804,376.589172 466.925232,372.044250 475.722412,369.679443 
	C479.422821,368.684692 482.948792,365.207001 485.450928,361.997894 
	C489.715271,356.528717 492.589233,349.941345 497.046295,344.668121 
	C500.128967,341.020935 504.553680,337.999756 508.981415,336.114136 
	C516.020386,333.116486 520.650818,335.939178 523.085266,344.153870 
	C522.561462,352.622192 521.947815,360.279388 521.334106,367.936554 
	C519.530151,377.826508 518.359314,387.886688 515.758057,397.562286 
	C512.677002,409.022430 508.362701,420.150970 504.103149,431.801636 
	C503.432007,432.477631 503.240570,432.775208 503.049103,433.072815 
	C503.049103,433.072815 503.019012,433.001526 502.765991,433.187103 
	C502.020447,435.255219 501.527924,437.137726 501.035400,439.020264 
	C500.909607,439.568176 500.783783,440.116089 500.145447,440.982483 
	C499.445496,441.894379 499.258057,442.487793 499.070618,443.081207 
	C499.070648,443.081207 499.035126,443.004395 498.793030,443.162476 
	C498.389893,443.910675 498.228882,444.500763 498.067871,445.090851 
	C498.067841,445.090851 498.034729,445.017639 497.794922,445.169861 
	C497.391357,445.912079 497.227600,446.502136 497.063812,447.092163 
	C497.063812,447.092163 497.058411,447.010101 496.908813,447.074951 
	C496.664886,447.219910 496.477966,447.347534 496.490845,447.372650 
	C496.595825,447.577271 496.738068,447.762787 496.868988,447.954102 
	C490.742615,462.282562 481.041962,474.142578 470.363800,485.156677 
	C454.249390,501.778046 437.693817,517.971069 421.408691,534.428284 
	C418.727112,537.138123 416.433502,540.238403 414.022949,543.208862 
	C407.241852,551.565308 405.665894,561.096741 407.693542,571.445312 
	C407.980804,572.911438 408.035797,574.423096 408.154846,576.337891 
	C405.725067,577.857971 403.338684,578.953796 400.583099,580.089355 
	C399.755554,573.076050 398.668213,565.994995 398.980591,558.976196 
	C399.499695,547.312256 405.515930,538.223633 413.803772,530.222168 
	C424.231506,520.154663 434.204834,509.616608 445.003326,499.100647 
	C446.084503,498.267578 446.536621,497.615509 446.988708,496.963409 
	C455.034332,488.371918 463.321899,479.992249 471.071564,471.141632 
	C484.253998,456.086426 493.130249,438.531647 499.887970,419.801819 
	C505.847687,403.283722 510.158173,386.393951 512.414429,368.272156 
	C512.753479,366.095673 512.750977,364.565613 512.748474,363.035583 
	C512.816895,362.567505 512.885315,362.099457 512.954346,360.863220 
	C513.435120,355.246552 513.915283,350.398071 514.495605,344.538849 
	C512.200745,345.192871 510.926788,345.555939 509.652802,345.919006 
	C509.178009,346.104156 508.703217,346.289307 507.831360,346.793457 
	C507.161591,347.386353 506.888885,347.660187 506.616180,347.934021 
M473.819641,388.275482 
	C474.596771,385.663605 475.373901,383.051697 476.314911,379.889069 
	C470.998077,380.100098 468.448639,383.172729 465.890625,386.111542 
	C457.422760,395.840088 454.405487,408.318787 448.843994,419.521698 
	C444.683319,427.902863 446.986725,435.251801 449.000488,443.610046 
	C455.827026,436.874969 459.867676,428.985291 462.928772,420.667725 
	C466.769623,410.231415 470.026672,399.580261 473.819641,388.275482 
z"/>
<path fill="#FDD055" opacity="1.000000" stroke="none" 
	d="
M319.929047,187.664169 
	C363.504242,195.795135 393.673279,220.729843 410.586792,261.352631 
	C422.677399,290.391846 421.474213,319.857422 409.940674,348.857086 
	C399.598480,374.861206 381.941833,394.630219 357.344879,408.072449 
	C345.577423,414.503418 333.077881,418.897034 319.789368,420.927582 
	C313.462555,421.894379 307.127350,423.588470 300.801605,423.562744 
	C294.308228,423.536346 287.792725,421.974274 281.337189,420.806274 
	C249.717514,415.085419 223.386826,400.221130 204.486420,373.998077 
	C182.427719,343.393097 176.309647,309.210785 186.615723,273.013245 
	C199.612228,227.366058 230.396713,199.766129 276.408783,188.890274 
	C278.025238,188.508209 279.660248,188.204590 282.086609,187.722107 
	C295.238464,185.689529 307.585571,185.881638 319.929047,187.664169 
M309.858246,396.088104 
	C326.400055,392.142944 337.058319,381.459808 343.743561,366.328613 
	C348.134064,356.391296 349.131744,346.041107 348.157806,335.208435 
	C347.140076,323.888306 343.219879,313.650696 338.998047,303.720886 
	C333.549286,307.933716 328.573700,312.335571 323.044189,315.871094 
	C319.004852,318.453796 316.617950,316.855804 316.966766,311.993652 
	C317.500061,304.559509 318.701080,297.174896 319.548889,289.761322 
	C321.596283,271.858307 319.399689,254.865479 308.337463,239.941452 
	C304.107635,234.234940 299.372162,228.986465 291.766754,225.898407 
	C292.078796,229.810333 292.261871,233.086456 292.614014,236.344284 
	C293.895111,248.195023 292.774323,259.721344 286.538605,270.080933 
	C279.336456,282.046021 271.485870,293.618713 264.092529,305.471375 
	C254.944092,320.137787 249.873856,335.839691 253.063766,353.352386 
	C257.033569,375.146698 275.365204,395.064819 297.401245,396.608765 
	C283.495667,372.814484 279.931824,348.756317 295.226135,322.979858 
	C299.905060,328.701324 304.395599,333.420563 307.980896,338.748932 
	C314.076477,347.808044 317.602142,357.776886 315.214844,368.925598 
	C313.279938,377.961639 311.027252,386.929626 308.608490,396.066895 
	C308.761139,396.070557 308.913788,396.074219 309.858246,396.088104 
z"/>
<path fill="#FBD154" opacity="1.000000" stroke="none" 
	d="
M128.157516,339.934387 
	C128.558060,341.887085 129.339233,343.858521 129.244141,345.786774 
	C129.161331,347.465759 128.089264,349.095947 127.454315,350.747711 
	C125.794769,349.769775 123.310051,349.178925 122.634697,347.739288 
	C120.811821,343.853394 119.471573,339.676697 118.445312,335.491425 
	C106.772560,287.887787 110.777969,242.153229 135.844376,199.336609 
	C164.429276,150.509964 206.732147,120.503304 262.129944,109.044807 
	C309.130676,99.323158 353.748596,106.505547 395.295013,130.018143 
	C430.158051,149.748413 456.002045,178.361893 472.731171,214.964127 
	C485.103943,242.034927 490.078033,270.565521 487.681946,300.055359 
	C486.519562,314.361359 482.761139,328.457733 480.134552,342.640961 
	C479.925446,343.769989 479.649414,345.083008 478.928864,345.880981 
	C477.312317,347.671051 475.166351,350.743042 473.646942,350.518005 
	C469.699005,349.933319 471.505585,346.404633 472.015961,344.025696 
	C475.445160,328.040863 477.272736,311.952606 477.244965,295.542816 
	C477.195862,266.536438 469.562622,239.613831 455.772583,214.415390 
	C435.718109,177.769897 406.279144,151.152832 367.593689,135.354660 
	C356.438690,130.799240 344.390808,128.430176 331.958893,124.982330 
	C311.114288,121.256973 291.074280,121.240463 271.046173,125.091164 
	C249.516373,127.988586 229.362961,135.163483 210.793533,146.176727 
	C182.194305,163.138489 159.605026,186.216934 143.684875,215.562073 
	C136.037354,229.658524 130.510315,244.576599 126.924469,261.007568 
	C121.453346,287.922058 122.100655,313.975647 128.157516,339.934387 
z"/>
<path fill="#94C0CD" opacity="1.000000" stroke="none" 
	d="
M128.413605,339.657471 
	C122.100655,313.975647 121.453346,287.922058 126.931595,261.398376 
	C127.258247,262.922363 127.820076,264.866241 127.557808,266.691650 
	C126.204659,276.109985 124.837555,285.453369 125.850166,295.073578 
	C126.501442,301.260925 125.577362,307.603180 126.055161,313.822540 
	C126.649147,321.554169 127.978348,329.228516 128.936325,336.934265 
	C129.034790,337.726379 128.767349,338.564026 128.413605,339.657471 
z"/>
<path fill="#93BFD3" opacity="1.000000" stroke="none" 
	d="
M271.327881,125.364243 
	C291.074280,121.240463 311.114288,121.256973 331.554413,125.010132 
	C326.783295,124.964127 321.624084,124.729523 316.463104,124.681778 
	C306.571838,124.590263 296.677948,124.485580 286.788513,124.625008 
	C281.725098,124.696404 276.669006,125.283363 271.327881,125.364243 
z"/>
<path fill="#A4D1D6" opacity="1.000000" stroke="none" 
	d="
M327.117798,523.202332 
	C327.348633,524.118774 327.203949,525.181335 326.966797,527.045349 
	C326.583466,529.808716 326.002319,531.778015 326.051788,533.731384 
	C326.273590,542.490540 326.674805,551.245178 327.011292,560.001404 
	C322.630157,547.815247 322.678314,535.596619 327.117798,523.202332 
z"/>
<path fill="#86BEDC" opacity="1.000000" stroke="none" 
	d="
M319.834351,187.317078 
	C307.585571,185.881638 295.238464,185.689529 282.485077,187.582108 
	C284.732178,186.735428 287.382172,185.162552 290.029205,185.167587 
	C299.560242,185.185699 309.090668,185.726151 318.619202,186.120804 
	C319.003754,186.136734 319.366699,186.675064 319.834351,187.317078 
z"/>
<path fill="#676146" opacity="1.000000" stroke="none" 
	d="
M78.203049,348.431702 
	C78.697639,348.258331 79.502068,348.446503 79.521446,348.695770 
	C80.218163,357.656403 80.841576,366.622772 81.157265,375.846130 
	C80.561775,374.650299 80.284203,373.196686 79.947891,370.941895 
	C79.277115,364.084564 78.665077,358.028351 78.053032,351.972168 
	C78.084290,350.922028 78.115547,349.871857 78.203049,348.431702 
z"/>
<path fill="#645D42" opacity="1.000000" stroke="none" 
	d="
M327.121094,560.310547 
	C326.674805,551.245178 326.273590,542.490540 326.051788,533.731384 
	C326.002319,531.778015 326.583466,529.808716 326.986023,527.446045 
	C327.394043,528.113831 328.111938,529.264648 327.921753,530.238220 
	C325.877350,540.704590 327.092346,550.973694 329.469147,561.206787 
	C329.592529,561.737976 329.179199,562.393860 328.595703,563.098816 
	C328.175659,563.205933 327.960510,563.013794 327.960510,563.013794 
	C327.717285,562.215759 327.474091,561.417664 327.121094,560.310547 
z"/>
<path fill="#A6D5DB" opacity="1.000000" stroke="none" 
	d="
M521.686951,367.832092 
	C521.947815,360.279388 522.561462,352.622192 523.211548,344.508423 
	C523.830750,344.885803 524.994873,345.788177 524.906067,346.543060 
	C524.072998,353.618988 523.025391,360.669678 521.686951,367.832092 
z"/>
<path fill="#A7D4D9" opacity="1.000000" stroke="none" 
	d="
M328.614563,569.335999 
	C330.151031,575.757141 331.420044,582.452087 332.692322,589.546143 
	C332.026062,588.455261 331.025604,587.024231 330.747345,585.464478 
	C329.808868,580.204285 329.127045,574.898254 328.614563,569.335999 
z"/>
<path fill="#A3CFD2" opacity="1.000000" stroke="none" 
	d="
M77.747337,352.252625 
	C78.665077,358.028351 79.277115,364.084564 79.866272,370.559753 
	C79.317070,370.647980 78.352760,370.344879 78.329865,369.982330 
	C77.962830,364.170441 77.715897,358.350891 77.747337,352.252625 
z"/>
<path fill="#A5D1D5" opacity="1.000000" stroke="none" 
	d="
M274.158752,520.854675 
	C272.869415,517.948730 271.858765,514.827698 270.792175,511.309204 
	C271.969971,514.154358 273.203735,517.397034 274.158752,520.854675 
z"/>
<path fill="#A5D1D5" opacity="1.000000" stroke="none" 
	d="
M275.785553,531.828369 
	C275.031677,529.231140 274.595764,526.531677 274.168884,523.431274 
	C274.819763,525.928894 275.461639,528.827515 275.785553,531.828369 
z"/>
<path fill="#A4D1D6" opacity="1.000000" stroke="none" 
	d="
M327.628418,563.063782 
	C327.960510,563.013794 328.175659,563.205933 328.267609,563.316772 
	C328.580292,564.751099 328.801025,566.074646 328.896057,567.680176 
	C326.671875,566.834656 324.904388,565.606506 327.628418,563.063782 
z"/>
<path fill="#635F45" opacity="1.000000" stroke="none" 
	d="
M501.277527,438.765747 
	C501.527924,437.137726 502.020447,435.255219 502.800720,433.204163 
	C502.565552,434.860870 502.042603,436.686066 501.277527,438.765747 
z"/>
<path fill="#635F45" opacity="1.000000" stroke="none" 
	d="
M498.323547,444.923584 
	C498.228882,444.500763 498.389893,443.910675 498.832703,443.177185 
	C498.936066,443.608002 498.757660,444.182159 498.323547,444.923584 
z"/>
<path fill="#635F45" opacity="1.000000" stroke="none" 
	d="
M497.318115,446.923462 
	C497.227600,446.502136 497.391357,445.912079 497.834900,445.174011 
	C497.933899,445.602264 497.753174,446.178497 497.318115,446.923462 
z"/>
<path fill="#A3CFD2" opacity="1.000000" stroke="none" 
	d="
M79.084076,340.190887 
	C79.139656,340.658844 78.854172,341.247986 78.323730,342.054932 
	C78.300194,341.619202 78.521606,340.965637 79.084076,340.190887 
z"/>
<path fill="#635F45" opacity="1.000000" stroke="none" 
	d="
M499.339691,442.927643 
	C499.258057,442.487793 499.445496,441.894379 499.928223,441.167236 
	C500.018616,441.613708 499.813690,442.193878 499.339691,442.927643 
z"/>
<path fill="#635F45" opacity="1.000000" stroke="none" 
	d="
M496.968689,447.738464 
	C496.738068,447.762787 496.595825,447.577271 496.490845,447.372650 
	C496.477966,447.347534 496.664886,447.219910 496.944305,447.095734 
	C497.129364,447.051666 497.068420,447.522858 496.968689,447.738464 
z"/>
<path fill="#635F45" opacity="1.000000" stroke="none" 
	d="
M503.350891,433.057556 
	C503.240570,432.775208 503.432007,432.477631 503.866730,432.058533 
	C503.957550,432.305420 503.805115,432.673859 503.350891,433.057556 
z"/>
<path fill="#A3CFD2" opacity="1.000000" stroke="none" 
	d="
M77.833237,343.081177 
	C78.000847,342.999969 78.050354,343.495209 77.994751,343.737732 
	C77.778297,343.808685 77.602287,343.647644 77.470131,343.456299 
	C77.445358,343.420410 77.595963,343.263458 77.833237,343.081177 
z"/>
<path fill="#63624A" opacity="1.000000" stroke="none" 
	d="
M332.989624,537.000793 
	C332.803253,527.000732 335.476257,517.760071 340.763580,509.094055 
	C338.782166,518.115479 336.432129,527.158569 333.763794,536.600769 
	C333.445465,536.999878 332.989624,537.000793 332.989624,537.000793 
z"/>
<path fill="#EBE7D6" opacity="1.000000" stroke="none" 
	d="
M510.077698,345.949524 
	C510.926788,345.555939 512.200745,345.192871 514.495605,344.538849 
	C513.915283,350.398071 513.435120,355.246552 512.890137,360.511658 
	C512.742065,357.555725 512.525085,354.179199 512.625000,350.812042 
	C512.685974,348.756042 514.047241,346.365692 510.077698,345.949524 
z"/>
<path fill="#67664F" opacity="1.000000" stroke="none" 
	d="
M335.157043,555.708740 
	C334.464325,552.818970 333.965027,549.653564 333.758698,546.233154 
	C334.484619,549.129822 334.917542,552.281433 335.157043,555.708740 
z"/>
<path fill="#67664F" opacity="1.000000" stroke="none" 
	d="
M332.716156,537.250305 
	C332.989624,537.000793 333.445465,536.999878 333.673340,536.997925 
	C333.925079,538.710022 333.948975,540.424133 333.910950,542.562378 
	C333.380280,541.157593 332.911499,539.328735 332.716156,537.250305 
z"/>
<path fill="#EBE7D6" opacity="1.000000" stroke="none" 
	d="
M512.408936,363.116638 
	C512.750977,364.565613 512.753479,366.095673 512.447754,367.854950 
	C512.116150,366.455353 512.092773,364.826538 512.408936,363.116638 
z"/>
<path fill="#605F48" opacity="1.000000" stroke="none" 
	d="
M446.737000,497.107880 
	C446.536621,497.615509 446.084503,498.267578 445.304932,498.955322 
	C445.480042,498.411438 445.982666,497.831879 446.737000,497.107880 
z"/>
<path fill="#63624A" opacity="1.000000" stroke="none" 
	d="
M341.308868,508.915833 
	C341.282684,508.504791 341.496429,507.902344 342.023926,507.184204 
	C342.074707,507.620514 341.811768,508.172455 341.308868,508.915833 
z"/>
<path fill="#EBE7D6" opacity="1.000000" stroke="none" 
	d="
M506.905914,347.859680 
	C506.888885,347.660187 507.161591,347.386353 507.712524,347.024384 
	C507.725708,347.219330 507.460663,347.502350 506.905914,347.859680 
z"/>
<path fill="#595941" opacity="1.000000" stroke="none" 
	d="
M265.606995,523.479797 
	C266.671875,526.320068 268.484680,529.533997 268.777405,532.880859 
	C269.147980,537.117432 268.281921,541.462036 267.570648,545.860474 
	C266.687988,538.611450 266.183929,531.262024 265.606995,523.479797 
z"/>
<path fill="#605F49" opacity="1.000000" stroke="none" 
	d="
M156.051880,496.704285 
	C155.856277,496.753571 155.548798,496.545868 155.142242,496.070923 
	C155.342102,496.018250 155.641052,496.232758 156.051880,496.704285 
z"/>
<path fill="#605F49" opacity="1.000000" stroke="none" 
	d="
M142.150909,482.648621 
	C141.946671,482.673553 141.595062,482.413696 141.152649,481.824280 
	C141.375732,481.784363 141.689621,482.074066 142.150909,482.648621 
z"/>
<path fill="#E1D9C2" opacity="1.000000" stroke="none" 
	d="
M152.892517,441.610443 
	C150.714966,440.372681 148.090240,439.282471 147.089081,437.350800 
	C142.380112,428.265137 137.618515,419.147064 133.836655,409.657593 
	C130.168137,400.452545 127.669197,390.781403 124.656601,381.314941 
	C125.103935,380.869507 125.551262,380.424042 125.998596,379.978577 
	C127.717590,380.778290 130.066040,381.115906 131.049454,382.455597 
	C135.994415,389.191986 141.105515,395.901215 145.132416,403.186981 
	C148.397888,409.095123 149.654648,416.099976 152.815735,422.082977 
	C156.322357,428.720001 155.657562,434.895081 152.892517,441.610443 
z"/>
<path fill="#E1D9C3" opacity="1.000000" stroke="none" 
	d="
M473.677643,388.648682 
	C470.026672,399.580261 466.769623,410.231415 462.928772,420.667725 
	C459.867676,428.985291 455.827026,436.874969 449.000488,443.610046 
	C446.986725,435.251801 444.683319,427.902863 448.843994,419.521698 
	C454.405487,408.318787 457.422760,395.840088 465.890625,386.111542 
	C468.448639,383.172729 470.998077,380.100098 476.314911,379.889069 
	C475.373901,383.051697 474.596771,385.663605 473.677643,388.648682 
z"/>
<path fill="#F28F01" opacity="1.000000" stroke="none" 
	d="
M308.915497,395.927795 
	C311.027252,386.929626 313.279938,377.961639 315.214844,368.925598 
	C317.602142,357.776886 314.076477,347.808044 307.980896,338.748932 
	C304.395599,333.420563 299.905060,328.701324 295.226135,322.979858 
	C279.931824,348.756317 283.495667,372.814484 297.401245,396.608765 
	C275.365204,395.064819 257.033569,375.146698 253.063766,353.352386 
	C249.873856,335.839691 254.944092,320.137787 264.092529,305.471375 
	C271.485870,293.618713 279.336456,282.046021 286.538605,270.080933 
	C292.774323,259.721344 293.895111,248.195023 292.614014,236.344284 
	C292.261871,233.086456 292.078796,229.810333 291.766754,225.898407 
	C299.372162,228.986465 304.107635,234.234940 308.337463,239.941452 
	C319.399689,254.865479 321.596283,271.858307 319.548889,289.761322 
	C318.701080,297.174896 317.500061,304.559509 316.966766,311.993652 
	C316.617950,316.855804 319.004852,318.453796 323.044189,315.871094 
	C328.573700,312.335571 333.549286,307.933716 338.998047,303.720886 
	C343.219879,313.650696 347.140076,323.888306 348.157806,335.208435 
	C349.131744,346.041107 348.134064,356.391296 343.743561,366.328613 
	C337.058319,381.459808 326.400055,392.142944 309.426147,396.043884 
	C308.994080,395.999695 308.915497,395.927795 308.915497,395.927795 
z"/>
<path fill="#F28F01" opacity="1.000000" stroke="none" 
	d="
M309.030273,396.038788 
	C308.913788,396.074219 308.761139,396.070557 308.761993,395.997345 
	C308.915497,395.927795 308.994080,395.999695 309.030273,396.038788 
z"/>
</svg>
